<svg xmlns="http://www.w3.org/2000/svg" xmlns:xlink="http://www.w3.org/1999/xlink" fill="#ABABAB" width="24" height="18" viewBox="0 0 24 18">
  <defs>
    <path id="bedroom-a" d="M2,18 L22,18 L22,16 L18.6666667,16 L2,16 L2,18 Z M2,20 L2,23 C2,23.5522847 1.55228475,24 1,24 C0.44771525,24 -8.70333007e-16,23.5522847 -9.37968382e-16,23 L4.17490571e-17,7 C-2.5886318e-17,6.44771525 0.44771525,6 1,6 C1.55228475,6 2,6.44771525 2,7 L2,11 L6,11 C7.65685425,11 9,12.3431458 9,14 L22,14 L22,13 C22,12.4477153 22.4477153,12 23,12 C23.5522847,12 24,12.4477153 24,13 L24,23 C24,23.5522847 23.5522847,24 23,24 C22.4477153,24 22,23.5522847 22,23 L22,20 L2,20 Z"/>
  </defs>
  <use transform="translate(0 -6)" xlink:href="#bedroom-a"/>
</svg>
