<svg xmlns="http://www.w3.org/2000/svg" xmlns:xlink="http://www.w3.org/1999/xlink" fill="#08D6B2" width="42" height="39" viewBox="0 0 42 39">
  <defs>
    <path id="mail-plane-a" d="M36.1718799,38.5969039 L22.0998799,26.7269039 L40.1958799,9.53690385 L36.1718799,38.5969039 Z M21.6158799,37.6429039 L21.6158799,30.2429039 L25.9258799,33.8809039 L21.6158799,37.6429039 Z M32.3938799,12.5649039 L18.8638799,25.0429039 L9.4078799,25.0429039 L32.3938799,12.5649039 Z M43.7518799,5.49090385 C43.7518799,5.38290385 43.7478799,5.27490385 43.7238799,5.17090385 C43.7098799,5.11090385 43.6858799,5.05490385 43.6658799,4.99690385 C43.6278799,4.89090385 43.5838799,4.79490385 43.5238799,4.70090385 C43.5058799,4.67290385 43.5018799,4.64090385 43.4818799,4.61490385 C43.4638799,4.59090385 43.4358799,4.57690385 43.4158799,4.55290385 C43.3458799,4.46690385 43.2658799,4.39290385 43.1758799,4.32490385 C43.1278799,4.28690385 43.0818799,4.24490385 43.0258799,4.21490385 C43.0038799,4.20090385 42.9878799,4.18090385 42.9638799,4.16890385 C42.8898799,4.12890385 42.8078799,4.11290385 42.7278799,4.08890385 C42.6718799,4.06890385 42.6218799,4.04290385 42.5618799,4.03090385 C42.4038799,3.99890385 42.2438799,3.99090385 42.0858799,4.01090385 C42.0738799,4.01090385 42.0618799,4.01290385 42.0498799,4.01490385 C41.8918799,4.03890385 41.7378799,4.09290385 41.5918799,4.16690385 C41.5798799,4.17290385 41.5658799,4.17290385 41.5538799,4.17890385 L2.7838799,25.2249039 C2.1818799,25.5529039 1.8778799,26.2469039 2.0458799,26.9129039 C2.2138799,27.5769039 2.8138799,28.0429039 3.4998799,28.0429039 L18.6158799,28.0429039 L18.6158799,40.9429039 C18.6158799,41.5309039 18.9598799,42.0649039 19.4938799,42.3089039 C19.6938799,42.3989039 19.9058799,42.4429039 20.1158799,42.4429039 C20.4698799,42.4429039 20.8238799,42.3169039 21.1018799,42.0729039 L28.2458799,35.8369039 L36.3178799,42.6429039 C36.5918799,42.8769039 36.9358799,42.9969039 37.2838799,42.9969039 C37.4638799,42.9969039 37.6478799,42.9649039 37.8218799,42.8969039 C38.3318799,42.7029039 38.6958799,42.2449039 38.7698799,41.7029039 L43.7558799,5.70290385 C43.7558799,5.69090385 43.7538799,5.68090385 43.7538799,5.66890385 C43.7598799,5.60890385 43.7518799,5.55090385 43.7518799,5.49090385 Z"/>
  </defs>
  <use fill-rule="evenodd" transform="translate(-2 -4)" xlink:href="#mail-plane-a"/>
</svg>
