<svg xmlns="http://www.w3.org/2000/svg" xmlns:xlink="http://www.w3.org/1999/xlink" fill="#ABABAB" width="22" height="15" viewBox="0 0 22 15">
  <defs>
    <path id="parking-a" d="M23,12.075 L19.26,10.865 L15.85,6.355 L3.64,6.355 L1,11.525 L1,18.345 L3.42,18.345 C3.86,19.665 5.07,20.545 6.5,20.545 C7.93,20.545 9.14,19.665 9.58,18.345 L14.42,18.345 C14.86,19.665 16.07,20.545 17.5,20.545 C18.93,20.545 20.14,19.665 20.58,18.345 L23,18.345 L23,12.075 Z M16.4,10.645 L12,10.645 L12,8.445 L14.75,8.445 L16.4,10.645 Z M9.8,8.445 L9.8,10.645 L3.86,10.645 L4.96,8.445 L9.8,8.445 Z M6.5,18.345 C5.84,18.345 5.4,17.905 5.4,17.245 C5.4,16.585 5.84,16.145 6.5,16.145 C7.16,16.145 7.6,16.585 7.6,17.245 C7.6,17.905 7.16,18.345 6.5,18.345 Z M17.5,18.345 C16.84,18.345 16.4,17.905 16.4,17.245 C16.4,16.585 16.84,16.145 17.5,16.145 C18.16,16.145 18.6,16.585 18.6,17.245 C18.6,17.905 18.16,18.345 17.5,18.345 Z M20.8,16.145 L20.58,16.145 C20.14,14.825 18.93,13.945 17.5,13.945 C16.07,13.945 14.86,14.825 14.42,16.145 L9.58,16.145 C9.14,14.825 7.93,13.945 6.5,13.945 C5.07,13.945 3.86,14.825 3.42,16.145 L3.2,16.145 L3.2,12.845 L18.49,12.845 L20.8,13.615 L20.8,16.145 Z"/>
  </defs>
  <use transform="translate(-1 -6)" xlink:href="#parking-a"/>
</svg>
