<svg xmlns="http://www.w3.org/2000/svg" xmlns:xlink="http://www.w3.org/1999/xlink" fill="#ABABAB" width="18" height="22" viewBox="0 0 18 22">
  <defs>
    <path id="bathroom-a" d="M7.16045169,6.05827178 C7.81627919,3.16225712 10.4056285,1 13.5,1 C17.0898509,1 20,3.91014913 20,7.5 L20,23 L18,23 L18,7.5 C18,5.01471863 15.9852814,3 13.5,3 C11.4950071,3 9.79627552,4.31126038 9.21458503,6.12300129 C11.9460035,6.68454797 14,9.10240569 14,12 L2,12 C2,8.9712158 4.24419813,6.46659217 7.16045169,6.05827178 Z M3,14 L5,14 L5,16 L3,16 L3,14 Z M3,18 L5,18 L5,20 L3,20 L3,18 Z M11,14 L13,14 L13,16 L11,16 L11,14 Z M11,18 L13,18 L13,20 L11,20 L11,18 Z M7,13 L9,13 L9,15 L7,15 L7,13 Z M7,17 L9,17 L9,19 L7,19 L7,17 Z"/>
  </defs>
  <use fill-rule="evenodd" transform="translate(-2 -1)" xlink:href="#bathroom-a"/>
</svg>
