<svg xmlns="http://www.w3.org/2000/svg" xmlns:xlink="http://www.w3.org/1999/xlink" fill="#ABABAB" width="24" height="24" viewBox="0 0 24 24">
  <defs>
    <path id="residential-a" d="M20.1780748,11.2201585 L11.9449445,2.98702825 L3.71181427,11.2201585 L4.62882204,11.2201585 L4,11.6643991 L4,11.8196676 L20,11.8196676 L20,11.6643991 L19.371178,11.2201585 L20.1780748,11.2201585 Z M23.6424437,11.8196676 L24,11.8196676 L24,13.8454294 L22,13.8454294 L22,21.2115881 C22,22.7165283 20.6568542,23.9365234 19,23.9365234 L15.3735352,23.9365234 C15.258129,23.9774645 15.1320536,24 15,24 C14.8679464,24 14.741871,23.9774645 14.6264648,23.9365234 L9.3735352,23.9365234 C9.25812895,23.9774645 9.13205364,24 9,24 C8.86794636,24 8.74187105,23.9774645 8.6264648,23.9365234 L5,23.9365234 C3.34314575,23.9365234 2,22.7165283 2,21.2115881 L2,13.8454294 L0,13.8454294 L0,11.8196676 L0.247445376,11.8196676 L11.9908925,0.0762205488 L13.4233224,1.50865043 L13.3773744,1.55459837 L23.6424437,11.8196676 Z M16,22.1198999 L19,22.1198999 C19.5522847,22.1198999 20,21.7132348 20,21.2115881 L20,13.8454294 L4,13.8454294 L4,21.2115881 C4,21.7132348 4.44771525,22.1198999 5,22.1198999 L8,22.1198999 L8,16.9566405 C8,16.470398 8.44771525,16.0762205 9,16.0762205 L15,16.0762205 C15.5522847,16.0762205 16,16.470398 16,16.9566405 L16,22.1198999 Z M14,22.1198999 L14,17.8370604 L10,17.8370604 L10,22.1198999 L14,22.1198999 Z"/>
  </defs>
  <use xlink:href="#residential-a"/>
</svg>
