<svg xmlns="http://www.w3.org/2000/svg" xmlns:xlink="http://www.w3.org/1999/xlink" width="128" height="79" viewBox="0 0 128 79">
  <defs>
    <polygon id="uem-logo-rev-a" points=".172 .74 5.945 .74 5.945 9 .172 9"/>
  </defs>
  <g fill="none" fill-rule="evenodd">
    <path fill="#FEFEFE" d="M67.3101,68.084 L69.0371,68.084 L69.0371,72.6 C69.0371,73.315 69.0561,73.774 69.1001,73.989 C69.1651,74.325 69.3441,74.599 69.6211,74.812 C69.8931,75.008 70.2771,75.113 70.7511,75.113 C71.2401,75.113 71.6071,75.021 71.8521,74.824 C72.1011,74.629 72.2551,74.388 72.3031,74.108 C72.3511,73.816 72.3721,73.353 72.3721,72.695 L72.3721,68.084 L74.0901,68.084 L74.0901,72.459 C74.0901,73.454 74.0461,74.166 73.9521,74.58 C73.8601,74.986 73.6911,75.339 73.4381,75.622 C73.1941,75.909 72.8591,76.132 72.4411,76.298 C72.0181,76.474 71.4791,76.556 70.8031,76.556 C69.9941,76.556 69.3841,76.464 68.9591,76.274 C68.5421,76.092 68.2071,75.86 67.9701,75.567 C67.7261,75.27 67.5661,74.962 67.4831,74.641 C67.3721,74.161 67.3101,73.454 67.3101,72.522 L67.3101,68.084 Z"/>
    <polygon fill="#FEFEFE" points="75.412 76.412 75.412 68.084 80.929 68.084 80.929 69.489 77.13 69.489 77.13 71.338 80.61 71.338 80.61 72.737 77.13 72.737 77.13 75.008 81.094 75.008 81.094 76.412"/>
    <polygon fill="#FEFEFE" points="82.04 76.412 82.04 68.084 84.605 68.084 86.699 73.936 88.649 68.084 91.3 68.159 91.3 76.487 89.633 76.412 89.633 69.858 87.35 76.412 86.091 76.412 83.631 69.858 83.631 76.412"/>
    <path fill="#FEFEFE" d="M99.0557 73.3525L99.0557 71.9565 102.1737 71.9565 102.1737 76.4365C102.1737 76.4365 99.7847 76.5555 99.1247 76.5555 98.2737 76.5555 97.5427 76.3705 96.9267 76.0005 96.2927 75.6375 95.8267 75.1135 95.5087 74.4425 95.1927 73.7585 95.0357 73.0165 95.0357 72.2225 95.0357 71.3505 95.2117 70.5795 95.5677 69.9055 95.9197 69.2345 96.4277 68.7115 97.1117 68.3605 97.6227 68.0835 98.2707 67.9445 99.0267 67.9445 100.0297 67.9445 100.8137 68.1615 101.3717 68.5905 101.9367 69.0285 102.4597 69.7085 102.4597 70.6685L100.8457 70.7045C100.7337 70.2915 100.5207 69.9775 100.2047 69.7335 99.8867 69.5025 99.5027 69.3805 99.0267 69.3805 98.3267 69.3805 97.7617 69.6175 97.3467 70.0785 96.9267 70.5415 96.7117 71.2375 96.7117 72.1485 96.7117 73.1405 96.8287 74.0715 97.2487 74.5675 97.6747 75.0665 98.3267 75.3225 99.0117 75.3225 99.3527 75.3225 100.5247 75.1905 100.5247 75.1905L100.5247 73.3525 99.0557 73.3525zM105.5293 76.4121L103.9803 76.4121 103.9803 70.7691 105.4143 70.7691 105.4233 71.4781C105.8123 70.5421 106.9813 70.4231 107.3083 70.6221L107.3083 72.1411C106.6473 71.8201 105.8723 71.9421 105.6533 72.5221 105.5353 72.8411 105.5293 73.5241 105.5293 74.5461L105.5293 76.4121zM109.7129 73.5429C109.7129 74.1109 109.8449 74.5569 110.1049 74.8539 110.3669 75.1549 110.6839 75.3079 111.0699 75.3079 111.4619 75.3079 111.7739 75.1549 112.0399 74.8539 112.2949 74.5569 112.4219 74.1109 112.4219 73.5329 112.4219 72.9679 112.2949 72.5339 112.0399 72.2339 111.7739 71.9349 111.4619 71.7829 111.0699 71.7829 110.6839 71.7829 110.3669 71.9349 110.1049 72.2339 109.8449 72.5339 109.7129 72.9769 109.7129 73.5429M108.2079 73.4639C108.2079 72.9629 108.3199 72.4709 108.5629 71.9929 108.7999 71.5229 109.1469 71.1599 109.5879 70.9139 110.0319 70.6609 110.5169 70.5419 111.0699 70.5419 111.9049 70.5419 112.5959 70.8199 113.1319 71.3849 113.6689 71.9529 113.9299 72.6629 113.9299 73.5239 113.9299 74.3989 113.6619 75.1229 113.1229 75.6909 112.5809 76.2649 111.9019 76.5559 111.0739 76.5559 110.5689 76.5559 110.0799 76.4319 109.6239 76.1919 109.1619 75.9559 108.7999 75.6089 108.5629 75.1449 108.3199 74.6839 108.2079 74.1239 108.2079 73.4639M119.1226 76.4121L119.1226 75.5321C118.9076 75.8531 118.6326 76.0921 118.2796 76.2721 117.9406 76.4601 117.5736 76.5531 117.1946 76.5531 116.7946 76.5531 116.4426 76.4641 116.1346 76.2911 115.8236 76.1071 115.6016 75.8721 115.4646 75.5511 115.3206 75.2321 115.2506 74.8001 115.2506 74.2461L115.2506 70.4911 116.7876 70.4911 116.7876 73.2181C116.7876 74.0471 116.8276 74.5581 116.8796 74.7441 116.9356 74.9311 117.0386 75.0811 117.1946 75.1901 117.3406 75.3011 117.5276 75.3571 117.7616 75.3571 118.0226 75.3571 118.2576 75.2861 118.4696 75.1321 118.6766 74.9861 118.8216 74.8111 118.8946 74.5911 118.9746 74.3741 119.0066 73.8411 119.0066 73.0001L119.0066 70.4911 120.5526 70.4911 120.5526 76.4121 119.1226 76.4121z"/>
    <g transform="translate(122 69.709)">
      <mask id="uem-logo-rev-b" fill="#fff">
        <use xlink:href="#uem-logo-rev-a"/>
      </mask>
      <path fill="#FEFEFE" d="M1.7173,3.7099 C1.7173,4.3729 1.8463,4.8609 2.1193,5.1869 C2.3733,5.4939 2.7043,5.6549 3.0853,5.6549 C3.4453,5.6549 3.7493,5.5079 3.9903,5.2159 C4.2303,4.9269 4.3503,4.4519 4.3503,3.7839 C4.3503,3.1719 4.2273,2.7179 3.9753,2.4109 C3.7273,2.1109 3.4223,1.9679 3.0493,1.9679 C2.6693,1.9679 2.3463,2.1109 2.1043,2.4079 C1.8443,2.6969 1.7173,3.1319 1.7173,3.7099 Z M0.1723,0.8679 L1.6253,0.8679 L1.6253,1.7319 C1.8213,1.4349 2.0803,1.2009 2.4043,1.0109 C2.7253,0.8279 3.0853,0.7399 3.4763,0.7399 C4.1613,0.7399 4.7423,1.0019 5.2233,1.5379 C5.7053,2.0739 5.9453,2.8179 5.9453,3.7779 C5.9453,4.7609 5.7053,5.5279 5.2173,6.0719 C4.7393,6.6189 4.1473,6.8949 3.4673,6.8949 C3.1433,6.8949 2.8413,6.8279 2.5773,6.6959 C2.3043,6.5649 2.0293,6.3429 1.7393,6.0239 L1.7393,8.9999 L0.1723,8.9999 L0.1723,0.8679 Z" mask="url(#uem-logo-rev-b)"/>
    </g>
    <path fill="#FEFEFE" d="M5.0635 73.0771L2.0515 73.0771 2.9775 70.4951C3.1625 69.9771 3.3135 69.4421 3.4115 68.9141L3.5955 68.9091C3.7285 69.3511 3.9145 69.9301 4.1735 70.6271L5.0635 73.0771zM3.0195 68.1501L.0005 76.3161.9235 76.3161 1.8085 73.7791 5.3165 73.7791 6.2575 76.3161 7.2695 76.3161 4.0415 68.1501 3.0195 68.1501zM17.0176 70.3193C16.2426 70.3193 15.6396 70.6563 15.1566 71.3353L15.0336 71.5053 14.9696 71.3053C14.8536 71.0013 14.6576 70.7493 14.3756 70.5823 14.1036 70.4093 13.7376 70.3193 13.2886 70.3193 12.8886 70.3193 12.5366 70.4043 12.2186 70.5773 11.9186 70.7493 11.6576 70.9683 11.4786 71.2573L11.2766 71.5483 11.2766 70.4633 10.5346 70.4633 10.5346 76.3163 11.3926 76.3163 11.3926 73.2703C11.3926 72.7083 11.4546 72.2763 11.5656 71.9713 11.6926 71.6563 11.8876 71.4203 12.1656 71.2573 12.4336 71.0903 12.7386 71.0193 13.0556 71.0193 13.4836 71.0193 13.7936 71.1433 13.9996 71.3983 14.1756 71.6323 14.2736 72.0033 14.2736 72.4723L14.2736 76.3163 15.1266 76.3163 15.1266 72.8943C15.1266 72.2473 15.2886 71.7693 15.5966 71.4693 15.9076 71.1603 16.3076 71.0193 16.7746 71.0193 17.0396 71.0193 17.2766 71.0753 17.4726 71.1973 17.6716 71.3143 17.8176 71.4783 17.8946 71.6763 17.9746 71.8743 18.0046 72.1783 18.0046 72.5993L18.0046 76.3163 18.8506 76.3163 18.8506 72.2533C18.8506 71.5923 18.6956 71.0903 18.3826 70.7883 18.0666 70.4783 17.6096 70.3193 17.0176 70.3193M20.7285 72.9013L20.7375 72.7963C20.7795 72.2473 20.9575 71.7983 21.2815 71.4693 21.6095 71.1333 22.0205 70.9643 22.5025 70.9643 23.0305 70.9643 23.4705 71.1813 23.8075 71.5923 24.0205 71.8653 24.1535 72.2673 24.1995 72.7943L24.2105 72.9013 20.7285 72.9013zM22.4895 70.3193C21.7195 70.3193 21.0775 70.5893 20.5985 71.1333 20.1075 71.6763 19.8565 72.4483 19.8565 73.4353 19.8565 74.3873 20.1005 75.1393 20.5835 75.6643 21.0635 76.1903 21.7245 76.4503 22.5475 76.4503 23.1985 76.4503 23.7365 76.2913 24.1605 75.9563 24.5465 75.6493 24.8295 75.2183 24.9915 74.6783L24.1605 74.5703C24.0005 74.9773 23.7965 75.2943 23.5415 75.4903 23.2685 75.6963 22.9325 75.8083 22.5525 75.8083 22.0385 75.8083 21.6025 75.6123 21.2635 75.2433 20.9155 74.8723 20.7285 74.3383 20.6865 73.6523L20.6815 73.5563 25.0525 73.5563 25.0525 73.3743C25.0525 72.4003 24.8085 71.6393 24.3285 71.1153 23.8585 70.5873 23.2405 70.3193 22.4895 70.3193zM32.71 70.2588C31.939 70.2588 31.335 70.5868 30.847 71.2748L30.726 71.4438 30.651 71.2468C30.54 70.9408 30.343 70.6928 30.064 70.5158 29.78 70.3408 29.412 70.2588 28.964 70.2588 28.569 70.2588 28.208 70.3408 27.893 70.5098 27.582 70.6858 27.327 70.9138 27.135 71.1968L26.946 71.4918 26.946 70.3968 26.194 70.3968 26.194 76.2508 27.054 76.2508 27.054 73.2058C27.054 72.6508 27.118 72.2128 27.234 71.9068 27.356 71.5948 27.56 71.3508 27.835 71.1968 28.108 71.0248 28.405 70.9498 28.723 70.9498 29.167 70.9498 29.48 71.0748 29.672 71.3328 29.856 71.5758 29.957 71.9368 29.957 72.4078L29.957 76.2508 30.814 76.2508 30.814 72.8308C30.814 72.1838 30.975 71.7028 31.286 71.4018 31.603 71.0988 32.006 70.9498 32.472 70.9498 32.738 70.9498 32.977 71.0088 33.176 71.1298 33.374 71.2468 33.52 71.4148 33.6 71.6158 33.673 71.8018 33.701 72.1068 33.701 72.5338L33.701 76.2508 34.558 76.2508 34.558 72.1888C34.558 71.5288 34.397 71.0328 34.087 70.7228 33.771 70.4118 33.312 70.2588 32.71 70.2588M39.4292 75.1797C39.0962 75.6007 38.6902 75.8087 38.2262 75.8087 37.6612 75.8087 37.2122 75.5167 36.8792 74.9617 36.6732 74.6217 36.5802 74.0927 36.5802 73.3417 36.5802 72.5777 36.7472 71.9927 37.0762 71.5837 37.4082 71.1737 37.8132 70.9637 38.2762 70.9637 38.7332 70.9637 39.1292 71.1647 39.4462 71.5657 39.7642 71.9607 39.9262 72.5677 39.9262 73.3787 39.9262 74.1747 39.7552 74.7817 39.4292 75.1797M40.7392 73.2967C40.7392 72.8697 40.6812 72.4617 40.5622 72.0877 40.4502 71.7167 40.2942 71.4017 40.0992 71.1387 39.8982 70.8867 39.6482 70.6747 39.3402 70.5367 39.0352 70.3967 38.7072 70.3197 38.3652 70.3197 37.7372 70.3197 37.2432 70.5657 36.8412 71.0937L36.6582 71.3247 36.6582 68.1507 35.8712 68.1507 35.8712 76.3167 36.5912 76.3167 36.5912 75.3277 36.7742 75.6007C37.1462 76.1737 37.6582 76.4507 38.3142 76.4507 38.9722 76.4507 39.5482 76.1787 40.0222 75.6357 40.5002 75.0897 40.7392 74.3107 40.7392 73.2967M42.626 72.9013L42.626 72.7963C42.661 72.2473 42.843 71.7983 43.172 71.4693 43.498 71.1333 43.911 70.9643 44.384 70.9643 44.921 70.9643 45.358 71.1813 45.691 71.5923 45.912 71.8653 46.036 72.2673 46.082 72.7943L46.094 72.9013 42.626 72.9013zM44.375 70.3193C43.603 70.3193 42.964 70.5893 42.483 71.1333 41.996 71.6763 41.747 72.4483 41.747 73.4353 41.747 74.3873 41.987 75.1393 42.471 75.6643 42.947 76.1903 43.612 76.4503 44.435 76.4503 45.083 76.4503 45.626 76.2913 46.048 75.9563 46.438 75.6493 46.713 75.2183 46.872 74.6783L46.048 74.5703C45.891 74.9773 45.683 75.2943 45.427 75.4903 45.154 75.6963 44.817 75.8083 44.435 75.8083 43.924 75.8083 43.489 75.6123 43.144 75.2433 42.8 74.8723 42.609 74.3383 42.573 73.6523L42.57 73.5563 46.932 73.5563 46.932 73.3743C46.932 72.4003 46.692 71.6393 46.216 71.1153 45.737 70.5873 45.123 70.3193 44.375 70.3193zM49.5313 71.4091C49.8983 71.1151 50.3903 71.1151 50.8503 71.3561L51.1293 70.5901C50.5973 70.2801 50.0603 70.2051 49.6453 70.5101 49.4643 70.6271 49.2663 70.9141 49.0483 71.3191L48.8613 71.2771 48.8613 70.4601 48.1653 70.4601 48.1653 76.3161 48.9583 76.3161 48.9583 73.2411C48.9583 72.8041 49.0143 72.3901 49.1323 72.0211 49.2123 71.7591 49.3403 71.5531 49.5313 71.4091M58.2422 75.1904C57.8982 75.5984 57.4592 75.8084 56.9392 75.8084 56.4182 75.8084 55.9812 75.5984 55.6382 75.1904 55.2922 74.7904 55.1212 74.1774 55.1212 73.3834 55.1212 72.5844 55.2922 71.9844 55.6382 71.5794 55.9812 71.1814 56.4182 70.9684 56.9392 70.9684 57.4592 70.9684 57.8982 71.1814 58.2422 71.5814 58.5862 71.9894 58.7562 72.5784 58.7562 73.3524 58.7562 74.1664 58.5862 74.7814 58.2422 75.1904M59.2492 75.0944C59.4682 74.6574 59.5782 74.0604 59.5782 73.2944 59.5782 72.3664 59.3342 71.6264 58.8402 71.1064 58.3552 70.5794 57.7112 70.3194 56.9392 70.3194 56.2452 70.3194 55.6512 70.5374 55.1692 70.9634 54.5942 71.4884 54.2992 72.2994 54.2992 73.3834 54.2992 74.3714 54.5432 75.1444 55.0342 75.6644 55.5082 76.1904 56.1562 76.4504 56.9392 76.4504 57.4332 76.4504 57.8852 76.3284 58.3032 76.0914 58.7162 75.8604 59.0322 75.5164 59.2492 75.0944M62.1265 68.2383C61.9055 68.3913 61.7505 68.5953 61.6615 68.8383 61.5965 69.0283 61.5615 69.3203 61.5615 69.7093L61.5615 70.4603 60.6895 70.4603 60.6895 71.0513 61.5615 71.0513 61.5615 76.3163 62.3535 76.3163 62.3535 71.0513 63.4915 71.0513 63.4915 70.4603 62.3535 70.4603 62.3535 69.7983C62.3535 69.4043 62.4255 69.1373 62.5675 68.9933 62.7805 68.7523 63.2415 68.7123 63.7765 68.8053L63.8945 68.0923C63.1065 67.9413 62.4905 67.9963 62.1265 68.2383M88.3506 42.2343L88.1126 42.2343 88.1126 44.7513 88.3506 44.7513C89.1476 44.7513 90.0436 44.5893 90.0436 43.4953 90.0436 42.3953 89.1476 42.2343 88.3506 42.2343"/>
    <path fill="#FEFEFE" d="M111.168 42.4502L108.271 42.4502 108.271 44.1362 111.02 44.1362 111.02 46.3582 108.271 46.3582 108.271 48.0962 111.168 48.0962 111.168 50.3202 105.831 50.3202 105.831 40.2252 111.168 40.2252 111.168 42.4502zM103.704 49.6372C102.967 50.3092 101.986 50.5882 101.041 50.5882 99.858 50.5882 98.701 50.1612 97.741 49.4402L98.79 47.3232C99.399 47.8942 100.119 48.3672 100.953 48.3672 101.526 48.3672 102.136 48.0572 102.136 47.3492 102.136 46.6122 101.177 46.3582 100.654 46.1982 99.124 45.7292 98.117 45.3012 98.117 43.3452 98.117 41.2962 99.473 39.9572 101.351 39.9572 102.297 39.9572 103.453 40.2802 104.285 40.7892L103.316 42.8242C102.869 42.4222 102.297 42.1542 101.699 42.1542 101.251 42.1542 100.654 42.4342 100.654 42.9972 100.654 43.5862 101.312 43.8132 101.738 43.9622L102.359 44.1612C103.667 44.5742 104.674 45.2872 104.674 46.9202 104.674 47.9242 104.45 48.9552 103.704 49.6372zM94.136 50.3202L96.574 50.3202 96.574 40.2252 94.136 40.2252 94.136 50.3202zM90.439 50.3202L88.139 46.4392 88.113 46.4392 88.113 50.3202 85.676 50.3202 85.676 40.2252 89.321 40.2252C91.176 40.2252 92.58 41.1772 92.58 43.3312 92.58 44.7242 91.861 45.9292 90.527 46.1812L93.478 50.3202 90.439 50.3202zM84.085 50.3202L81.644 50.3202 77.179 44.1362 77.153 44.1362 77.153 50.3202 74.715 50.3202 74.715 40.2252 77.153 40.2252 81.62 46.3982 81.644 46.3982 81.644 40.2252 84.085 40.2252 84.085 50.3202zM73.172 45.9032C73.172 47.1992 73.123 48.4892 72.191 49.4642 71.405 50.2942 70.173 50.5882 69.075 50.5882 67.983 50.5882 66.752 50.2942 65.972 49.4642 65.038 48.4892 64.987 47.1992 64.987 45.9032L64.987 40.2252 67.425 40.2252 67.425 45.5402C67.425 46.8532 67.511 48.2852 69.075 48.2852 70.648 48.2852 70.734 46.8532 70.734 45.5402L70.734 40.2252 73.172 40.2252 73.172 45.9032zM62.907 49.6372C62.175 50.3092 61.19 50.5882 60.245 50.5882 59.062 50.5882 57.906 50.1612 56.948 49.4402L57.995 47.3232C58.604 47.8942 59.328 48.3672 60.16 48.3672 60.733 48.3672 61.341 48.0572 61.341 47.3492 61.341 46.6122 60.383 46.3582 59.86 46.1982 58.332 45.7292 57.323 45.3012 57.323 43.3452 57.323 41.2962 58.679 39.9572 60.558 39.9572 61.502 39.9572 62.661 40.2802 63.494 40.7892L62.525 42.8242C62.074 42.4222 61.502 42.1542 60.904 42.1542 60.456 42.1542 59.86 42.4342 59.86 42.9972 59.86 43.5862 60.518 43.8132 60.946 43.9622L61.564 44.1612C62.87 44.5742 63.88 45.2872 63.88 46.9202 63.88 47.9242 63.653 48.9552 62.907 49.6372zM13.837 54.7452L115.159 54.7452 115.159 35.6432 13.837 35.6432 13.837 54.7452zM32.1699 11.123C32.3499 11.123 32.5019 11.269 32.5019 11.453L32.5019 26.557C32.5019 26.557 32.2599 32.811 23.4779 32.684L23.1029 32.684 23.0519 32.684 22.6749 32.684C13.8949 32.811 13.6559 26.557 13.6559 26.557L13.6559 11.453C13.6559 11.269 13.8029 11.123 13.9859 11.123L18.9949 11.123C19.1759 11.123 19.3259 11.269 19.3259 11.453L19.3259 25.625C19.3259 25.625 19.4379 27.918 21.4969 28.308 21.4969 28.308 23.8119 28.617 24.6559 28.308 26.7189 27.918 26.8299 25.625 26.8299 25.625L26.8299 11.453C26.8299 11.269 26.9769 11.123 27.1599 11.123L32.1699 11.123zM67.4263 32.1797C67.6103 32.1797 67.7963 32.0357 67.8483 31.8627L71.0643 20.7877C71.1153 20.6187 71.1733 20.6237 71.1893 20.8047L72.2963 31.8517C72.3163 32.0287 72.4773 32.1797 72.6593 32.1797L77.3793 32.1797C77.5603 32.1797 77.6933 32.0307 77.6723 31.8517L75.3453 11.4497C75.3263 11.2667 75.1623 11.1227 74.9803 11.1227L69.8073 11.1227C69.6263 11.1227 69.4313 11.2597 69.3723 11.4337L65.0923 24.1427C65.0353 24.3167 64.9873 24.4567 64.9843 24.4567 64.9813 24.4567 64.9313 24.3167 64.8753 24.1427L60.5933 11.4337C60.5353 11.2597 60.3383 11.1227 60.1583 11.1227L54.9883 11.1227C54.8063 11.1227 54.6413 11.2667 54.6223 11.4497L52.2933 31.8517C52.2753 32.0307 52.4053 32.1797 52.5873 32.1797L57.3063 32.1797C57.4883 32.1797 57.6523 32.0287 57.6703 31.8517L58.7763 20.8047C58.7963 20.6237 58.8523 20.6187 58.9013 20.7877L62.1173 31.8627C62.1703 32.0357 62.3603 32.1797 62.5433 32.1797L67.4263 32.1797zM36.4517 11.123C36.2687 11.123 36.1187 11.269 36.1187 11.453L36.1187 31.849C36.1187 32.028 36.2687 32.176 36.4517 32.176L49.9157 32.18C50.0967 32.18 50.2437 32.028 50.2437 31.849L50.2437 28.154C50.2437 27.971 50.0967 27.826 49.9157 27.826L41.7897 27.826 41.7897 23.631 48.8657 23.631C49.0447 23.631 49.1947 23.483 49.1947 23.301L49.1947 19.999C49.1947 19.817 49.0447 19.664 48.8657 19.664L41.7897 19.664 41.7897 15.477 49.9157 15.477C50.0967 15.477 50.2437 15.328 50.2437 15.144L50.2437 11.453C50.2437 11.269 50.0967 11.123 49.9157 11.123L36.4517 11.123zM114.8101 17.6679C111.5931 20.1499 105.1141 22.5989 98.6841 23.7679 98.4601 23.8069 98.2431 23.6559 98.2001 23.4319 98.1601 23.1999 98.3101 22.9819 98.5361 22.9399 104.8461 21.7989 111.1801 19.4149 114.2981 17.0049 114.6991 16.6989 114.9941 16.4269 115.1241 16.1319 115.1251 16.2259 115.1251 16.3179 115.1251 16.4149 115.1251 16.7569 115.1171 17.0869 115.0991 17.4049 115.0021 17.5139 114.9431 17.5629 114.8101 17.6679M97.5951 19.1369C97.5481 18.9089 97.6961 18.6879 97.9221 18.6429 104.2621 17.3569 110.6991 14.7719 113.7041 12.2719 114.0651 11.9699 114.3071 11.6159 114.3481 11.3549 114.4631 11.7099 114.5651 12.0699 114.6581 12.4369 114.5541 12.6029 114.4461 12.7369 114.2381 12.9139 111.1401 15.4959 104.5521 18.1539 98.0891 19.4609 97.8631 19.5089 97.6431 19.3619 97.5951 19.1369M96.6161 14.6619C96.5901 14.4349 96.7571 14.2269 96.9851 14.2009 101.8041 13.6789 109.7441 10.1529 111.9881 8.3009 112.3381 8.0089 112.5661 7.7539 112.5681 7.5709 112.7431 7.8419 112.9071 8.1139 113.0641 8.3929 112.9681 8.5779 112.8001 8.7079 112.5201 8.9439 110.1501 10.9049 102.1181 14.4879 97.0761 15.0309 96.8471 15.0579 96.6381 14.8909 96.6161 14.6619M110.2411 4.6449C110.2411 4.6449 110.1151 4.9399 109.4711 5.4109 106.1251 7.8379 98.1141 10.4459 93.9881 10.4459 92.4541 10.4459 90.7641 10.2999 90.7641 7.9109 90.7641 4.0169 95.6881.2969 95.4321.3519 95.1701.4049 94.9101.4679 94.6531.5369 94.5181.5729 94.3821.6069 94.2471.6479 87.4361 2.6229 82.4611 8.9099 82.4611 16.3569 82.4611 19.9879 83.6411 23.3339 85.6351 26.0449 85.6411 26.0559 85.6481 26.0639 85.6571 26.0769 85.6571 26.0769 87.7241 28.0249 93.6131 28.0249 106.0251 28.0249 112.4971 23.8069 114.4661 21.1639 114.4661 21.1639 115.1811 19.1209 115.1811 16.3569 115.1811 11.7659 113.2901 7.6169 110.2411 4.6449"/>
    <path fill="#FEFEFE" d="M98.7939,0 C89.7739,0 82.4609,7.324 82.4609,16.357 C82.4609,25.396 89.7739,32.718 98.7939,32.718 C107.8149,32.718 115.1279,25.396 115.1279,16.357 C115.1279,7.324 107.8149,0 98.7939,0 M98.7939,0.741 C107.3919,0.741 114.3869,7.746 114.3869,16.357 C114.3869,24.97 107.3919,31.977 98.7939,31.977 C90.1969,31.977 83.2019,24.97 83.2019,16.357 C83.2019,7.746 90.1969,0.741 98.7939,0.741"/>
  </g>
</svg>
