<svg id="Layer_1" data-name="Layer 1" xmlns="http://www.w3.org/2000/svg" viewBox="0 0 2515.23 1081.1"><defs><style>.cls-1{fill:none;stroke:#bcbec0;stroke-miterlimit:10;stroke-width:0.25px;}</style></defs><title>background-retail</title><line class="cls-1" x1="495.11" y1="0.05" x2="0.11" y2="1081.05"/><line class="cls-1" x1="500.11" y1="0.05" x2="5.11" y2="1081.05"/><line class="cls-1" x1="505.11" y1="0.05" x2="10.11" y2="1081.05"/><line class="cls-1" x1="510.11" y1="0.05" x2="15.11" y2="1081.05"/><line class="cls-1" x1="515.11" y1="0.05" x2="20.11" y2="1081.05"/><line class="cls-1" x1="520.11" y1="0.05" x2="25.11" y2="1081.05"/><line class="cls-1" x1="525.11" y1="0.05" x2="30.11" y2="1081.05"/><line class="cls-1" x1="530.11" y1="0.05" x2="35.11" y2="1081.05"/><line class="cls-1" x1="535.11" y1="0.05" x2="40.11" y2="1081.05"/><line class="cls-1" x1="540.11" y1="0.05" x2="45.11" y2="1081.05"/><line class="cls-1" x1="545.11" y1="0.05" x2="50.11" y2="1081.05"/><line class="cls-1" x1="550.11" y1="0.05" x2="55.11" y2="1081.05"/><line class="cls-1" x1="555.11" y1="0.05" x2="60.11" y2="1081.05"/><line class="cls-1" x1="560.11" y1="0.05" x2="65.11" y2="1081.05"/><line class="cls-1" x1="565.11" y1="0.05" x2="70.11" y2="1081.05"/><line class="cls-1" x1="570.11" y1="0.05" x2="75.11" y2="1081.05"/><line class="cls-1" x1="575.11" y1="0.05" x2="80.11" y2="1081.05"/><line class="cls-1" x1="580.11" y1="0.05" x2="85.11" y2="1081.05"/><line class="cls-1" x1="585.11" y1="0.05" x2="90.11" y2="1081.05"/><line class="cls-1" x1="590.11" y1="0.05" x2="95.11" y2="1081.05"/><line class="cls-1" x1="595.11" y1="0.05" x2="100.11" y2="1081.05"/><line class="cls-1" x1="600.11" y1="0.05" x2="105.11" y2="1081.05"/><line class="cls-1" x1="605.11" y1="0.05" x2="110.11" y2="1081.05"/><line class="cls-1" x1="610.11" y1="0.05" x2="115.11" y2="1081.05"/><line class="cls-1" x1="615.11" y1="0.05" x2="120.11" y2="1081.05"/><line class="cls-1" x1="620.11" y1="0.05" x2="125.11" y2="1081.05"/><line class="cls-1" x1="625.11" y1="0.05" x2="130.11" y2="1081.05"/><line class="cls-1" x1="630.11" y1="0.05" x2="135.11" y2="1081.05"/><line class="cls-1" x1="635.11" y1="0.05" x2="140.11" y2="1081.05"/><line class="cls-1" x1="640.11" y1="0.05" x2="145.11" y2="1081.05"/><line class="cls-1" x1="645.11" y1="0.05" x2="150.11" y2="1081.05"/><line class="cls-1" x1="650.11" y1="0.05" x2="155.11" y2="1081.05"/><line class="cls-1" x1="655.11" y1="0.05" x2="160.11" y2="1081.05"/><line class="cls-1" x1="660.11" y1="0.05" x2="165.11" y2="1081.05"/><line class="cls-1" x1="665.11" y1="0.05" x2="170.11" y2="1081.05"/><line class="cls-1" x1="670.11" y1="0.05" x2="175.11" y2="1081.05"/><line class="cls-1" x1="675.11" y1="0.05" x2="180.11" y2="1081.05"/><line class="cls-1" x1="680.11" y1="0.05" x2="185.11" y2="1081.05"/><line class="cls-1" x1="685.11" y1="0.05" x2="190.11" y2="1081.05"/><line class="cls-1" x1="690.11" y1="0.05" x2="195.11" y2="1081.05"/><line class="cls-1" x1="695.11" y1="0.05" x2="200.11" y2="1081.05"/><line class="cls-1" x1="700.11" y1="0.05" x2="205.11" y2="1081.05"/><line class="cls-1" x1="705.11" y1="0.05" x2="210.11" y2="1081.05"/><line class="cls-1" x1="710.11" y1="0.05" x2="215.11" y2="1081.05"/><line class="cls-1" x1="715.11" y1="0.05" x2="220.11" y2="1081.05"/><line class="cls-1" x1="720.11" y1="0.05" x2="225.11" y2="1081.05"/><line class="cls-1" x1="725.11" y1="0.05" x2="230.11" y2="1081.05"/><line class="cls-1" x1="730.11" y1="0.05" x2="235.11" y2="1081.05"/><line class="cls-1" x1="735.11" y1="0.05" x2="240.11" y2="1081.05"/><line class="cls-1" x1="740.11" y1="0.05" x2="245.11" y2="1081.05"/><line class="cls-1" x1="745.11" y1="0.05" x2="250.11" y2="1081.05"/><line class="cls-1" x1="750.11" y1="0.05" x2="255.11" y2="1081.05"/><line class="cls-1" x1="755.11" y1="0.05" x2="260.11" y2="1081.05"/><line class="cls-1" x1="760.11" y1="0.05" x2="265.11" y2="1081.05"/><line class="cls-1" x1="765.11" y1="0.05" x2="270.11" y2="1081.05"/><line class="cls-1" x1="770.11" y1="0.05" x2="275.11" y2="1081.05"/><line class="cls-1" x1="775.11" y1="0.05" x2="280.11" y2="1081.05"/><line class="cls-1" x1="780.11" y1="0.05" x2="285.11" y2="1081.05"/><line class="cls-1" x1="785.11" y1="0.05" x2="290.11" y2="1081.05"/><line class="cls-1" x1="790.11" y1="0.05" x2="295.11" y2="1081.05"/><line class="cls-1" x1="795.11" y1="0.05" x2="300.11" y2="1081.05"/><line class="cls-1" x1="800.11" y1="0.05" x2="305.11" y2="1081.05"/><line class="cls-1" x1="805.11" y1="0.05" x2="310.11" y2="1081.05"/><line class="cls-1" x1="810.11" y1="0.05" x2="315.11" y2="1081.05"/><line class="cls-1" x1="815.11" y1="0.05" x2="320.11" y2="1081.05"/><line class="cls-1" x1="820.11" y1="0.05" x2="325.11" y2="1081.05"/><line class="cls-1" x1="825.11" y1="0.05" x2="330.11" y2="1081.05"/><line class="cls-1" x1="830.11" y1="0.05" x2="335.11" y2="1081.05"/><line class="cls-1" x1="835.11" y1="0.05" x2="340.11" y2="1081.05"/><line class="cls-1" x1="840.11" y1="0.05" x2="345.11" y2="1081.05"/><line class="cls-1" x1="845.11" y1="0.05" x2="350.11" y2="1081.05"/><line class="cls-1" x1="850.11" y1="0.05" x2="355.11" y2="1081.05"/><line class="cls-1" x1="855.11" y1="0.05" x2="360.11" y2="1081.05"/><line class="cls-1" x1="860.11" y1="0.05" x2="365.11" y2="1081.05"/><line class="cls-1" x1="865.11" y1="0.05" x2="370.11" y2="1081.05"/><line class="cls-1" x1="870.11" y1="0.05" x2="375.11" y2="1081.05"/><line class="cls-1" x1="875.11" y1="0.05" x2="380.11" y2="1081.05"/><line class="cls-1" x1="880.11" y1="0.05" x2="385.11" y2="1081.05"/><line class="cls-1" x1="885.11" y1="0.05" x2="390.11" y2="1081.05"/><line class="cls-1" x1="890.11" y1="0.05" x2="395.11" y2="1081.05"/><line class="cls-1" x1="895.11" y1="0.05" x2="400.11" y2="1081.05"/><line class="cls-1" x1="900.11" y1="0.05" x2="405.11" y2="1081.05"/><line class="cls-1" x1="905.11" y1="0.05" x2="410.11" y2="1081.05"/><line class="cls-1" x1="910.11" y1="0.05" x2="415.11" y2="1081.05"/><line class="cls-1" x1="915.11" y1="0.05" x2="420.11" y2="1081.05"/><line class="cls-1" x1="920.11" y1="0.05" x2="425.11" y2="1081.05"/><line class="cls-1" x1="925.11" y1="0.05" x2="430.11" y2="1081.05"/><line class="cls-1" x1="930.11" y1="0.05" x2="435.11" y2="1081.05"/><line class="cls-1" x1="935.11" y1="0.05" x2="440.11" y2="1081.05"/><line class="cls-1" x1="940.11" y1="0.05" x2="445.11" y2="1081.05"/><line class="cls-1" x1="945.11" y1="0.05" x2="450.11" y2="1081.05"/><line class="cls-1" x1="950.11" y1="0.05" x2="455.11" y2="1081.05"/><line class="cls-1" x1="955.11" y1="0.05" x2="460.11" y2="1081.05"/><line class="cls-1" x1="960.11" y1="0.05" x2="465.11" y2="1081.05"/><line class="cls-1" x1="965.11" y1="0.05" x2="470.11" y2="1081.05"/><line class="cls-1" x1="970.11" y1="0.05" x2="475.11" y2="1081.05"/><line class="cls-1" x1="975.11" y1="0.05" x2="480.11" y2="1081.05"/><line class="cls-1" x1="980.11" y1="0.05" x2="485.11" y2="1081.05"/><line class="cls-1" x1="985.11" y1="0.05" x2="490.11" y2="1081.05"/><line class="cls-1" x1="990.11" y1="0.05" x2="495.11" y2="1081.05"/><line class="cls-1" x1="995.11" y1="0.05" x2="500.11" y2="1081.05"/><line class="cls-1" x1="1000.11" y1="0.05" x2="505.11" y2="1081.05"/><line class="cls-1" x1="1005.11" y1="0.05" x2="510.11" y2="1081.05"/><line class="cls-1" x1="1010.11" y1="0.05" x2="515.11" y2="1081.05"/><line class="cls-1" x1="1015.11" y1="0.05" x2="520.11" y2="1081.05"/><line class="cls-1" x1="1020.11" y1="0.05" x2="525.11" y2="1081.05"/><line class="cls-1" x1="1025.11" y1="0.05" x2="530.11" y2="1081.05"/><line class="cls-1" x1="1030.11" y1="0.05" x2="535.11" y2="1081.05"/><line class="cls-1" x1="1035.11" y1="0.05" x2="540.11" y2="1081.05"/><line class="cls-1" x1="1040.11" y1="0.05" x2="545.11" y2="1081.05"/><line class="cls-1" x1="1045.11" y1="0.05" x2="550.11" y2="1081.05"/><line class="cls-1" x1="1050.11" y1="0.05" x2="555.11" y2="1081.05"/><line class="cls-1" x1="1055.11" y1="0.05" x2="560.11" y2="1081.05"/><line class="cls-1" x1="1060.11" y1="0.05" x2="565.11" y2="1081.05"/><line class="cls-1" x1="1065.11" y1="0.05" x2="570.11" y2="1081.05"/><line class="cls-1" x1="1070.11" y1="0.05" x2="575.11" y2="1081.05"/><line class="cls-1" x1="1075.11" y1="0.05" x2="580.11" y2="1081.05"/><line class="cls-1" x1="1080.11" y1="0.05" x2="585.11" y2="1081.05"/><line class="cls-1" x1="1085.11" y1="0.05" x2="590.11" y2="1081.05"/><line class="cls-1" x1="1090.11" y1="0.05" x2="595.11" y2="1081.05"/><line class="cls-1" x1="1095.11" y1="0.05" x2="600.11" y2="1081.05"/><line class="cls-1" x1="1100.11" y1="0.05" x2="605.11" y2="1081.05"/><line class="cls-1" x1="1105.11" y1="0.05" x2="610.11" y2="1081.05"/><line class="cls-1" x1="1110.11" y1="0.05" x2="615.11" y2="1081.05"/><line class="cls-1" x1="1115.11" y1="0.05" x2="620.11" y2="1081.05"/><line class="cls-1" x1="1120.11" y1="0.05" x2="625.11" y2="1081.05"/><line class="cls-1" x1="1125.11" y1="0.05" x2="630.11" y2="1081.05"/><line class="cls-1" x1="1130.11" y1="0.05" x2="635.11" y2="1081.05"/><line class="cls-1" x1="1135.11" y1="0.05" x2="640.11" y2="1081.05"/><line class="cls-1" x1="1140.11" y1="0.05" x2="645.11" y2="1081.05"/><line class="cls-1" x1="1145.11" y1="0.05" x2="650.11" y2="1081.05"/><line class="cls-1" x1="1150.11" y1="0.05" x2="655.11" y2="1081.05"/><line class="cls-1" x1="1155.11" y1="0.05" x2="660.11" y2="1081.05"/><line class="cls-1" x1="1160.11" y1="0.05" x2="665.11" y2="1081.05"/><line class="cls-1" x1="1165.11" y1="0.05" x2="670.11" y2="1081.05"/><line class="cls-1" x1="1170.11" y1="0.05" x2="675.11" y2="1081.05"/><line class="cls-1" x1="1175.11" y1="0.05" x2="680.11" y2="1081.05"/><line class="cls-1" x1="1180.11" y1="0.05" x2="685.11" y2="1081.05"/><line class="cls-1" x1="1185.11" y1="0.05" x2="690.11" y2="1081.05"/><line class="cls-1" x1="1190.11" y1="0.05" x2="695.11" y2="1081.05"/><line class="cls-1" x1="1195.11" y1="0.05" x2="700.11" y2="1081.05"/><line class="cls-1" x1="1200.11" y1="0.05" x2="705.11" y2="1081.05"/><line class="cls-1" x1="1205.11" y1="0.05" x2="710.11" y2="1081.05"/><line class="cls-1" x1="1210.11" y1="0.05" x2="715.11" y2="1081.05"/><line class="cls-1" x1="1215.11" y1="0.05" x2="720.11" y2="1081.05"/><line class="cls-1" x1="1220.11" y1="0.05" x2="725.11" y2="1081.05"/><line class="cls-1" x1="1225.11" y1="0.05" x2="730.11" y2="1081.05"/><line class="cls-1" x1="1230.11" y1="0.05" x2="735.11" y2="1081.05"/><line class="cls-1" x1="1235.11" y1="0.05" x2="740.11" y2="1081.05"/><line class="cls-1" x1="1240.11" y1="0.05" x2="745.11" y2="1081.05"/><line class="cls-1" x1="1245.11" y1="0.05" x2="750.11" y2="1081.05"/><line class="cls-1" x1="1250.11" y1="0.05" x2="755.11" y2="1081.05"/><line class="cls-1" x1="1255.11" y1="0.05" x2="760.11" y2="1081.05"/><line class="cls-1" x1="1260.11" y1="0.05" x2="765.11" y2="1081.05"/><line class="cls-1" x1="1265.11" y1="0.05" x2="770.11" y2="1081.05"/><line class="cls-1" x1="1270.11" y1="0.05" x2="775.11" y2="1081.05"/><line class="cls-1" x1="1275.11" y1="0.05" x2="780.11" y2="1081.05"/><line class="cls-1" x1="1280.11" y1="0.05" x2="785.11" y2="1081.05"/><line class="cls-1" x1="1285.11" y1="0.05" x2="790.11" y2="1081.05"/><line class="cls-1" x1="1290.11" y1="0.05" x2="795.11" y2="1081.05"/><line class="cls-1" x1="1295.11" y1="0.05" x2="800.11" y2="1081.05"/><line class="cls-1" x1="1300.11" y1="0.05" x2="805.11" y2="1081.05"/><line class="cls-1" x1="1305.11" y1="0.05" x2="810.11" y2="1081.05"/><line class="cls-1" x1="1310.11" y1="0.05" x2="815.11" y2="1081.05"/><line class="cls-1" x1="1315.11" y1="0.05" x2="820.11" y2="1081.05"/><line class="cls-1" x1="1320.11" y1="0.05" x2="825.11" y2="1081.05"/><line class="cls-1" x1="1325.11" y1="0.05" x2="830.11" y2="1081.05"/><line class="cls-1" x1="1330.11" y1="0.05" x2="835.11" y2="1081.05"/><line class="cls-1" x1="1335.11" y1="0.05" x2="840.11" y2="1081.05"/><line class="cls-1" x1="1340.11" y1="0.05" x2="845.11" y2="1081.05"/><line class="cls-1" x1="1345.11" y1="0.05" x2="850.11" y2="1081.05"/><line class="cls-1" x1="1350.11" y1="0.05" x2="855.11" y2="1081.05"/><line class="cls-1" x1="1355.11" y1="0.05" x2="860.11" y2="1081.05"/><line class="cls-1" x1="1360.11" y1="0.05" x2="865.11" y2="1081.05"/><line class="cls-1" x1="1365.11" y1="0.05" x2="870.11" y2="1081.05"/><line class="cls-1" x1="1370.11" y1="0.05" x2="875.11" y2="1081.05"/><line class="cls-1" x1="1375.11" y1="0.05" x2="880.11" y2="1081.05"/><line class="cls-1" x1="1380.11" y1="0.05" x2="885.11" y2="1081.05"/><line class="cls-1" x1="1385.11" y1="0.05" x2="890.11" y2="1081.05"/><line class="cls-1" x1="1390.11" y1="0.05" x2="895.11" y2="1081.05"/><line class="cls-1" x1="1395.11" y1="0.05" x2="900.11" y2="1081.05"/><line class="cls-1" x1="1400.11" y1="0.05" x2="905.11" y2="1081.05"/><line class="cls-1" x1="1405.11" y1="0.05" x2="910.11" y2="1081.05"/><line class="cls-1" x1="1410.11" y1="0.05" x2="915.11" y2="1081.05"/><line class="cls-1" x1="1415.11" y1="0.05" x2="920.11" y2="1081.05"/><line class="cls-1" x1="1420.11" y1="0.05" x2="925.11" y2="1081.05"/><line class="cls-1" x1="1425.11" y1="0.05" x2="930.11" y2="1081.05"/><line class="cls-1" x1="1430.11" y1="0.05" x2="935.11" y2="1081.05"/><line class="cls-1" x1="1435.11" y1="0.05" x2="940.11" y2="1081.05"/><line class="cls-1" x1="1440.11" y1="0.05" x2="945.11" y2="1081.05"/><line class="cls-1" x1="1445.11" y1="0.05" x2="950.11" y2="1081.05"/><line class="cls-1" x1="1450.11" y1="0.05" x2="955.11" y2="1081.05"/><line class="cls-1" x1="1455.11" y1="0.05" x2="960.11" y2="1081.05"/><line class="cls-1" x1="1460.11" y1="0.05" x2="965.11" y2="1081.05"/><line class="cls-1" x1="1465.11" y1="0.05" x2="970.11" y2="1081.05"/><line class="cls-1" x1="1470.11" y1="0.05" x2="975.11" y2="1081.05"/><line class="cls-1" x1="1475.11" y1="0.05" x2="980.11" y2="1081.05"/><line class="cls-1" x1="1480.11" y1="0.05" x2="985.11" y2="1081.05"/><line class="cls-1" x1="1485.11" y1="0.05" x2="990.11" y2="1081.05"/><line class="cls-1" x1="1490.11" y1="0.05" x2="995.11" y2="1081.05"/><line class="cls-1" x1="1495.11" y1="0.05" x2="1000.11" y2="1081.05"/><line class="cls-1" x1="1500.11" y1="0.05" x2="1005.11" y2="1081.05"/><line class="cls-1" x1="1505.11" y1="0.05" x2="1010.11" y2="1081.05"/><line class="cls-1" x1="1510.11" y1="0.05" x2="1015.11" y2="1081.05"/><line class="cls-1" x1="1515.11" y1="0.05" x2="1020.11" y2="1081.05"/><line class="cls-1" x1="1520.11" y1="0.05" x2="1025.11" y2="1081.05"/><line class="cls-1" x1="1525.11" y1="0.05" x2="1030.11" y2="1081.05"/><line class="cls-1" x1="1530.11" y1="0.05" x2="1035.11" y2="1081.05"/><line class="cls-1" x1="1535.11" y1="0.05" x2="1040.11" y2="1081.05"/><line class="cls-1" x1="1540.11" y1="0.05" x2="1045.11" y2="1081.05"/><line class="cls-1" x1="1545.11" y1="0.05" x2="1050.11" y2="1081.05"/><line class="cls-1" x1="1550.11" y1="0.05" x2="1055.11" y2="1081.05"/><line class="cls-1" x1="1555.11" y1="0.05" x2="1060.11" y2="1081.05"/><line class="cls-1" x1="1560.11" y1="0.05" x2="1065.11" y2="1081.05"/><line class="cls-1" x1="1565.11" y1="0.05" x2="1070.11" y2="1081.05"/><line class="cls-1" x1="1570.11" y1="0.05" x2="1075.11" y2="1081.05"/><line class="cls-1" x1="1575.11" y1="0.05" x2="1080.11" y2="1081.05"/><line class="cls-1" x1="1580.11" y1="0.05" x2="1085.11" y2="1081.05"/><line class="cls-1" x1="1585.11" y1="0.05" x2="1090.11" y2="1081.05"/><line class="cls-1" x1="1590.11" y1="0.05" x2="1095.11" y2="1081.05"/><line class="cls-1" x1="1595.11" y1="0.05" x2="1100.11" y2="1081.05"/><line class="cls-1" x1="1600.11" y1="0.05" x2="1105.11" y2="1081.05"/><line class="cls-1" x1="1605.11" y1="0.05" x2="1110.11" y2="1081.05"/><line class="cls-1" x1="1610.11" y1="0.05" x2="1115.11" y2="1081.05"/><line class="cls-1" x1="1615.11" y1="0.05" x2="1120.11" y2="1081.05"/><line class="cls-1" x1="1620.11" y1="0.05" x2="1125.11" y2="1081.05"/><line class="cls-1" x1="1625.11" y1="0.05" x2="1130.11" y2="1081.05"/><line class="cls-1" x1="1630.11" y1="0.05" x2="1135.11" y2="1081.05"/><line class="cls-1" x1="1635.11" y1="0.05" x2="1140.11" y2="1081.05"/><line class="cls-1" x1="1640.11" y1="0.05" x2="1145.11" y2="1081.05"/><line class="cls-1" x1="1645.11" y1="0.05" x2="1150.11" y2="1081.05"/><line class="cls-1" x1="1650.11" y1="0.05" x2="1155.11" y2="1081.05"/><line class="cls-1" x1="1655.11" y1="0.05" x2="1160.11" y2="1081.05"/><line class="cls-1" x1="1660.11" y1="0.05" x2="1165.11" y2="1081.05"/><line class="cls-1" x1="1665.11" y1="0.05" x2="1170.11" y2="1081.05"/><line class="cls-1" x1="1670.11" y1="0.05" x2="1175.11" y2="1081.05"/><line class="cls-1" x1="1675.11" y1="0.05" x2="1180.11" y2="1081.05"/><line class="cls-1" x1="1680.11" y1="0.05" x2="1185.11" y2="1081.05"/><line class="cls-1" x1="1685.11" y1="0.05" x2="1190.11" y2="1081.05"/><line class="cls-1" x1="1690.11" y1="0.05" x2="1195.11" y2="1081.05"/><line class="cls-1" x1="1695.11" y1="0.05" x2="1200.11" y2="1081.05"/><line class="cls-1" x1="1700.11" y1="0.05" x2="1205.11" y2="1081.05"/><line class="cls-1" x1="1705.11" y1="0.05" x2="1210.11" y2="1081.05"/><line class="cls-1" x1="1710.11" y1="0.05" x2="1215.11" y2="1081.05"/><line class="cls-1" x1="1715.11" y1="0.05" x2="1220.11" y2="1081.05"/><line class="cls-1" x1="1720.11" y1="0.05" x2="1225.11" y2="1081.05"/><line class="cls-1" x1="1725.11" y1="0.05" x2="1230.11" y2="1081.05"/><line class="cls-1" x1="1730.11" y1="0.05" x2="1235.11" y2="1081.05"/><line class="cls-1" x1="1735.11" y1="0.05" x2="1240.11" y2="1081.05"/><line class="cls-1" x1="1740.11" y1="0.05" x2="1245.11" y2="1081.05"/><line class="cls-1" x1="1745.11" y1="0.05" x2="1250.11" y2="1081.05"/><line class="cls-1" x1="1750.11" y1="0.05" x2="1255.11" y2="1081.05"/><line class="cls-1" x1="1755.11" y1="0.05" x2="1260.11" y2="1081.05"/><line class="cls-1" x1="1760.11" y1="0.05" x2="1265.11" y2="1081.05"/><line class="cls-1" x1="1765.11" y1="0.05" x2="1270.11" y2="1081.05"/><line class="cls-1" x1="1770.11" y1="0.05" x2="1275.11" y2="1081.05"/><line class="cls-1" x1="1775.11" y1="0.05" x2="1280.11" y2="1081.05"/><line class="cls-1" x1="1780.11" y1="0.05" x2="1285.11" y2="1081.05"/><line class="cls-1" x1="1785.11" y1="0.05" x2="1290.11" y2="1081.05"/><line class="cls-1" x1="1790.11" y1="0.05" x2="1295.11" y2="1081.05"/><line class="cls-1" x1="1795.11" y1="0.05" x2="1300.11" y2="1081.05"/><line class="cls-1" x1="1800.11" y1="0.05" x2="1305.11" y2="1081.05"/><line class="cls-1" x1="1805.11" y1="0.05" x2="1310.11" y2="1081.05"/><line class="cls-1" x1="1810.11" y1="0.05" x2="1315.11" y2="1081.05"/><line class="cls-1" x1="1815.11" y1="0.05" x2="1320.11" y2="1081.05"/><line class="cls-1" x1="1820.11" y1="0.05" x2="1325.11" y2="1081.05"/><line class="cls-1" x1="1825.11" y1="0.05" x2="1330.11" y2="1081.05"/><line class="cls-1" x1="1830.11" y1="0.05" x2="1335.11" y2="1081.05"/><line class="cls-1" x1="1835.11" y1="0.05" x2="1340.11" y2="1081.05"/><line class="cls-1" x1="1840.11" y1="0.05" x2="1345.11" y2="1081.05"/><line class="cls-1" x1="1845.11" y1="0.05" x2="1350.11" y2="1081.05"/><line class="cls-1" x1="1850.11" y1="0.05" x2="1355.11" y2="1081.05"/><line class="cls-1" x1="1855.11" y1="0.05" x2="1360.11" y2="1081.05"/><line class="cls-1" x1="1860.11" y1="0.05" x2="1365.11" y2="1081.05"/><line class="cls-1" x1="1865.11" y1="0.05" x2="1370.11" y2="1081.05"/><line class="cls-1" x1="1870.11" y1="0.05" x2="1375.11" y2="1081.05"/><line class="cls-1" x1="1875.11" y1="0.05" x2="1380.11" y2="1081.05"/><line class="cls-1" x1="1880.11" y1="0.05" x2="1385.11" y2="1081.05"/><line class="cls-1" x1="1885.11" y1="0.05" x2="1390.11" y2="1081.05"/><line class="cls-1" x1="1890.11" y1="0.05" x2="1395.11" y2="1081.05"/><line class="cls-1" x1="1895.11" y1="0.05" x2="1400.11" y2="1081.05"/><line class="cls-1" x1="1900.11" y1="0.05" x2="1405.11" y2="1081.05"/><line class="cls-1" x1="1905.11" y1="0.05" x2="1410.11" y2="1081.05"/><line class="cls-1" x1="1910.11" y1="0.05" x2="1415.11" y2="1081.05"/><line class="cls-1" x1="1915.11" y1="0.05" x2="1420.11" y2="1081.05"/><line class="cls-1" x1="1920.11" y1="0.05" x2="1425.11" y2="1081.05"/><line class="cls-1" x1="1925.11" y1="0.05" x2="1430.11" y2="1081.05"/><line class="cls-1" x1="1930.11" y1="0.05" x2="1435.11" y2="1081.05"/><line class="cls-1" x1="1935.11" y1="0.05" x2="1440.11" y2="1081.05"/><line class="cls-1" x1="1940.11" y1="0.05" x2="1445.11" y2="1081.05"/><line class="cls-1" x1="1945.11" y1="0.05" x2="1450.11" y2="1081.05"/><line class="cls-1" x1="1950.11" y1="0.05" x2="1455.11" y2="1081.05"/><line class="cls-1" x1="1955.11" y1="0.05" x2="1460.11" y2="1081.05"/><line class="cls-1" x1="1960.11" y1="0.05" x2="1465.11" y2="1081.05"/><line class="cls-1" x1="1965.11" y1="0.05" x2="1470.11" y2="1081.05"/><line class="cls-1" x1="1970.11" y1="0.05" x2="1475.11" y2="1081.05"/><line class="cls-1" x1="1975.11" y1="0.05" x2="1480.11" y2="1081.05"/><line class="cls-1" x1="1980.11" y1="0.05" x2="1485.11" y2="1081.05"/><line class="cls-1" x1="1985.11" y1="0.05" x2="1490.11" y2="1081.05"/><line class="cls-1" x1="1990.11" y1="0.05" x2="1495.11" y2="1081.05"/><line class="cls-1" x1="1995.11" y1="0.05" x2="1500.11" y2="1081.05"/><line class="cls-1" x1="2000.11" y1="0.05" x2="1505.11" y2="1081.05"/><line class="cls-1" x1="2005.11" y1="0.05" x2="1510.11" y2="1081.05"/><line class="cls-1" x1="2010.11" y1="0.05" x2="1515.11" y2="1081.05"/><line class="cls-1" x1="2015.11" y1="0.05" x2="1520.11" y2="1081.05"/><line class="cls-1" x1="2020.11" y1="0.05" x2="1525.11" y2="1081.05"/><line class="cls-1" x1="2025.11" y1="0.05" x2="1530.11" y2="1081.05"/><line class="cls-1" x1="2030.11" y1="0.05" x2="1535.11" y2="1081.05"/><line class="cls-1" x1="2035.11" y1="0.05" x2="1540.11" y2="1081.05"/><line class="cls-1" x1="2040.11" y1="0.05" x2="1545.11" y2="1081.05"/><line class="cls-1" x1="2045.11" y1="0.05" x2="1550.11" y2="1081.05"/><line class="cls-1" x1="2050.11" y1="0.05" x2="1555.11" y2="1081.05"/><line class="cls-1" x1="2055.11" y1="0.05" x2="1560.11" y2="1081.05"/><line class="cls-1" x1="2060.11" y1="0.05" x2="1565.11" y2="1081.05"/><line class="cls-1" x1="2065.11" y1="0.05" x2="1570.11" y2="1081.05"/><line class="cls-1" x1="2070.11" y1="0.05" x2="1575.11" y2="1081.05"/><line class="cls-1" x1="2075.11" y1="0.05" x2="1580.11" y2="1081.05"/><line class="cls-1" x1="2080.11" y1="0.05" x2="1585.11" y2="1081.05"/><line class="cls-1" x1="2085.11" y1="0.05" x2="1590.11" y2="1081.05"/><line class="cls-1" x1="2090.11" y1="0.05" x2="1595.11" y2="1081.05"/><line class="cls-1" x1="2095.11" y1="0.05" x2="1600.11" y2="1081.05"/><line class="cls-1" x1="2100.11" y1="0.05" x2="1605.11" y2="1081.05"/><line class="cls-1" x1="2105.11" y1="0.05" x2="1610.11" y2="1081.05"/><line class="cls-1" x1="2110.11" y1="0.05" x2="1615.11" y2="1081.05"/><line class="cls-1" x1="2115.11" y1="0.05" x2="1620.11" y2="1081.05"/><line class="cls-1" x1="2120.11" y1="0.05" x2="1625.11" y2="1081.05"/><line class="cls-1" x1="2125.11" y1="0.05" x2="1630.11" y2="1081.05"/><line class="cls-1" x1="2130.11" y1="0.05" x2="1635.11" y2="1081.05"/><line class="cls-1" x1="2135.11" y1="0.05" x2="1640.11" y2="1081.05"/><line class="cls-1" x1="2140.11" y1="0.05" x2="1645.11" y2="1081.05"/><line class="cls-1" x1="2145.11" y1="0.05" x2="1650.11" y2="1081.05"/><line class="cls-1" x1="2150.11" y1="0.05" x2="1655.11" y2="1081.05"/><line class="cls-1" x1="2155.11" y1="0.05" x2="1660.11" y2="1081.05"/><line class="cls-1" x1="2160.11" y1="0.05" x2="1665.11" y2="1081.05"/><line class="cls-1" x1="2165.11" y1="0.05" x2="1670.11" y2="1081.05"/><line class="cls-1" x1="2170.11" y1="0.05" x2="1675.11" y2="1081.05"/><line class="cls-1" x1="2175.11" y1="0.05" x2="1680.11" y2="1081.05"/><line class="cls-1" x1="2180.11" y1="0.05" x2="1685.11" y2="1081.05"/><line class="cls-1" x1="2185.11" y1="0.05" x2="1690.11" y2="1081.05"/><line class="cls-1" x1="2190.11" y1="0.05" x2="1695.11" y2="1081.05"/><line class="cls-1" x1="2195.11" y1="0.05" x2="1700.11" y2="1081.05"/><line class="cls-1" x1="2200.11" y1="0.05" x2="1705.11" y2="1081.05"/><line class="cls-1" x1="2205.11" y1="0.05" x2="1710.11" y2="1081.05"/><line class="cls-1" x1="2210.11" y1="0.05" x2="1715.11" y2="1081.05"/><line class="cls-1" x1="2215.11" y1="0.05" x2="1720.11" y2="1081.05"/><line class="cls-1" x1="2220.11" y1="0.05" x2="1725.11" y2="1081.05"/><line class="cls-1" x1="2225.11" y1="0.05" x2="1730.11" y2="1081.05"/><line class="cls-1" x1="2230.11" y1="0.05" x2="1735.11" y2="1081.05"/><line class="cls-1" x1="2235.11" y1="0.05" x2="1740.11" y2="1081.05"/><line class="cls-1" x1="2240.11" y1="0.05" x2="1745.11" y2="1081.05"/><line class="cls-1" x1="2245.11" y1="0.05" x2="1750.11" y2="1081.05"/><line class="cls-1" x1="2250.11" y1="0.05" x2="1755.11" y2="1081.05"/><line class="cls-1" x1="2255.11" y1="0.05" x2="1760.11" y2="1081.05"/><line class="cls-1" x1="2260.11" y1="0.05" x2="1765.11" y2="1081.05"/><line class="cls-1" x1="2265.11" y1="0.05" x2="1770.11" y2="1081.05"/><line class="cls-1" x1="2270.11" y1="0.05" x2="1775.11" y2="1081.05"/><line class="cls-1" x1="2275.11" y1="0.05" x2="1780.11" y2="1081.05"/><line class="cls-1" x1="2280.11" y1="0.05" x2="1785.11" y2="1081.05"/><line class="cls-1" x1="2285.11" y1="0.05" x2="1790.11" y2="1081.05"/><line class="cls-1" x1="2290.11" y1="0.05" x2="1795.11" y2="1081.05"/><line class="cls-1" x1="2295.11" y1="0.05" x2="1800.11" y2="1081.05"/><line class="cls-1" x1="2300.11" y1="0.05" x2="1805.11" y2="1081.05"/><line class="cls-1" x1="2305.11" y1="0.05" x2="1810.11" y2="1081.05"/><line class="cls-1" x1="2310.11" y1="0.05" x2="1815.11" y2="1081.05"/><line class="cls-1" x1="2315.11" y1="0.05" x2="1820.11" y2="1081.05"/><line class="cls-1" x1="2320.11" y1="0.05" x2="1825.11" y2="1081.05"/><line class="cls-1" x1="2325.11" y1="0.05" x2="1830.11" y2="1081.05"/><line class="cls-1" x1="2330.11" y1="0.05" x2="1835.11" y2="1081.05"/><line class="cls-1" x1="2335.11" y1="0.05" x2="1840.11" y2="1081.05"/><line class="cls-1" x1="2340.11" y1="0.05" x2="1845.11" y2="1081.05"/><line class="cls-1" x1="2345.11" y1="0.05" x2="1850.11" y2="1081.05"/><line class="cls-1" x1="2350.11" y1="0.05" x2="1855.11" y2="1081.05"/><line class="cls-1" x1="2355.11" y1="0.05" x2="1860.11" y2="1081.05"/><line class="cls-1" x1="2360.11" y1="0.05" x2="1865.11" y2="1081.05"/><line class="cls-1" x1="2365.11" y1="0.05" x2="1870.11" y2="1081.05"/><line class="cls-1" x1="2370.11" y1="0.05" x2="1875.11" y2="1081.05"/><line class="cls-1" x1="2375.11" y1="0.05" x2="1880.11" y2="1081.05"/><line class="cls-1" x1="2380.11" y1="0.05" x2="1885.11" y2="1081.05"/><line class="cls-1" x1="2385.11" y1="0.05" x2="1890.11" y2="1081.05"/><line class="cls-1" x1="2390.11" y1="0.05" x2="1895.11" y2="1081.05"/><line class="cls-1" x1="2395.11" y1="0.05" x2="1900.11" y2="1081.05"/><line class="cls-1" x1="2400.11" y1="0.05" x2="1905.11" y2="1081.05"/><line class="cls-1" x1="2405.11" y1="0.05" x2="1910.11" y2="1081.05"/><line class="cls-1" x1="2410.11" y1="0.05" x2="1915.11" y2="1081.05"/><line class="cls-1" x1="2415.11" y1="0.05" x2="1920.11" y2="1081.05"/><line class="cls-1" x1="2420.11" y1="0.05" x2="1925.11" y2="1081.05"/><line class="cls-1" x1="2425.11" y1="0.05" x2="1930.11" y2="1081.05"/><line class="cls-1" x1="2430.11" y1="0.05" x2="1935.11" y2="1081.05"/><line class="cls-1" x1="2435.11" y1="0.05" x2="1940.11" y2="1081.05"/><line class="cls-1" x1="2440.11" y1="0.05" x2="1945.11" y2="1081.05"/><line class="cls-1" x1="2445.11" y1="0.05" x2="1950.11" y2="1081.05"/><line class="cls-1" x1="2450.11" y1="0.05" x2="1955.11" y2="1081.05"/><line class="cls-1" x1="2455.11" y1="0.05" x2="1960.11" y2="1081.05"/><line class="cls-1" x1="2460.11" y1="0.05" x2="1965.11" y2="1081.05"/><line class="cls-1" x1="2465.11" y1="0.05" x2="1970.11" y2="1081.05"/><line class="cls-1" x1="2470.11" y1="0.05" x2="1975.11" y2="1081.05"/><line class="cls-1" x1="2475.11" y1="0.05" x2="1980.11" y2="1081.05"/><line class="cls-1" x1="2480.11" y1="0.05" x2="1985.11" y2="1081.05"/><line class="cls-1" x1="2485.11" y1="0.05" x2="1990.11" y2="1081.05"/><line class="cls-1" x1="2490.11" y1="0.05" x2="1995.11" y2="1081.05"/><line class="cls-1" x1="2495.11" y1="0.05" x2="2000.11" y2="1081.05"/><line class="cls-1" x1="2500.11" y1="0.05" x2="2005.11" y2="1081.05"/><line class="cls-1" x1="2505.11" y1="0.05" x2="2010.11" y2="1081.05"/><line class="cls-1" x1="2510.11" y1="0.05" x2="2015.11" y2="1081.05"/><line class="cls-1" x1="2515.11" y1="0.05" x2="2020.11" y2="1081.05"/></svg>